<svg width="106" height="48" viewBox="0 0 106 48" fill="none" xmlns="http://www.w3.org/2000/svg">
<path d="M13.4 47.25C11.4667 47.25 9.28333 47.0833 6.85 46.75C5.51667 46.5833 4.6 46.2333 4.1 45.7C3.6 45.1667 3.38333 44.3 3.45 43.1C3.68333 39.8 4.23333 35.7333 5.1 30.9C5.96667 26.0333 7.01667 21.35 8.25 16.85C8.48333 16.0167 8.95 15.4333 9.65 15.1C10.35 14.7667 11.2667 14.6 12.4 14.6C14.4333 14.6 15.45 15.1667 15.45 16.3C15.45 16.7667 15.35 17.3 15.15 17.9C14.2833 20.5667 13.4167 24.15 12.55 28.65C11.6833 33.1167 11.0667 37.3833 10.7 41.45C11.7 41.55 12.8333 41.6 14.1 41.6C19.9333 41.6 24.2833 39.8333 27.15 36.3C30.05 32.7667 31.5 28.05 31.5 22.15C31.5 18.1833 30.3667 15.1167 28.1 12.95C25.8333 10.7833 22.6333 9.7 18.5 9.7C15.8333 9.7 13.1833 10.1167 10.55 10.95C7.95 11.7833 5.6 12.8833 3.5 14.25C3.06667 14.55 2.6 14.7 2.1 14.7C1.53333 14.7 1.08333 14.4667 0.75 14C0.416667 13.5 0.25 12.9 0.25 12.2C0.25 11.4 0.383333 10.75 0.65 10.25C0.916667 9.71666 1.36667 9.23333 2 8.8C4.3 7.23333 7 6.05 10.1 5.25C13.2 4.41667 16.1833 4 19.05 4C23.1167 4 26.6333 4.71667 29.6 6.15C32.5667 7.55 34.85 9.61667 36.45 12.35C38.05 15.0833 38.85 18.3833 38.85 22.25C38.85 27.2833 37.85 31.6833 35.85 35.45C33.85 39.1833 30.9333 42.0833 27.1 44.15C23.2667 46.2167 18.7 47.25 13.4 47.25ZM48.2586 20.4C46.8586 20.4 45.8086 20.0833 45.1086 19.45C44.4086 18.7833 44.0586 17.8667 44.0586 16.7C44.0586 15.5333 44.5086 14.5667 45.4086 13.8C46.3419 13 47.4919 12.6 48.8586 12.6C50.0919 12.6 51.0919 12.9 51.8586 13.5C52.6253 14.1 53.0086 14.95 53.0086 16.05C53.0086 17.3833 52.5753 18.45 51.7086 19.25C50.8419 20.0167 49.6919 20.4 48.2586 20.4ZM47.8586 47.25C45.6919 47.25 44.1086 46.4833 43.1086 44.95C42.1419 43.4167 41.6586 41.3833 41.6586 38.85C41.6586 37.35 41.8419 35.4333 42.2086 33.1C42.6086 30.7333 43.1086 28.5333 43.7086 26.5C44.0086 25.4333 44.4086 24.7 44.9086 24.3C45.4086 23.9 46.2086 23.7 47.3086 23.7C49.0086 23.7 49.8586 24.2667 49.8586 25.4C49.8586 26.2333 49.5419 28.1667 48.9086 31.2C48.1086 34.8667 47.7086 37.35 47.7086 38.65C47.7086 39.65 47.8419 40.4167 48.1086 40.95C48.3753 41.4833 48.8253 41.75 49.4586 41.75C50.0586 41.75 50.8086 41.3333 51.7086 40.5C52.6086 39.6667 53.8086 38.35 55.3086 36.55C55.7086 36.0833 56.1586 35.85 56.6586 35.85C57.0919 35.85 57.4253 36.05 57.6586 36.45C57.9253 36.85 58.0586 37.4 58.0586 38.1C58.0586 39.4333 57.7419 40.4667 57.1086 41.2C53.8086 45.2333 50.7253 47.25 47.8586 47.25ZM72.9633 35.85C73.3966 35.85 73.7299 36.05 73.9633 36.45C74.2299 36.85 74.3633 37.4 74.3633 38.1C74.3633 39.4333 74.0466 40.4667 73.4133 41.2C71.9799 42.9667 70.4133 44.4167 68.7133 45.55C67.0466 46.6833 65.1466 47.25 63.0133 47.25C60.0799 47.25 57.8966 45.9167 56.4633 43.25C55.0633 40.5833 54.3633 37.1333 54.3633 32.9C54.3633 28.8333 54.8799 24.2 55.9133 19C56.9799 13.8 58.5299 9.33333 60.5633 5.6C62.6299 1.86666 65.0799 -2.86102e-06 67.9133 -2.86102e-06C69.5133 -2.86102e-06 70.7633 0.749997 71.6633 2.25C72.5966 3.71667 73.0633 5.83333 73.0633 8.6C73.0633 12.5667 71.9633 17.1667 69.7633 22.4C67.5633 27.6333 64.5799 32.8167 60.8133 37.95C61.0466 39.3167 61.4299 40.3 61.9633 40.9C62.4966 41.4667 63.1966 41.75 64.0633 41.75C65.4299 41.75 66.6299 41.3667 67.6633 40.6C68.6966 39.8 70.0133 38.45 71.6133 36.55C72.0133 36.0833 72.4633 35.85 72.9633 35.85ZM66.8133 4.95C66.0466 4.95 65.1799 6.33333 64.2133 9.1C63.2466 11.8667 62.3966 15.3 61.6633 19.4C60.9299 23.5 60.5299 27.4333 60.4633 31.2C62.8299 27.3 64.7133 23.4 66.1133 19.5C67.5133 15.5667 68.2133 11.9833 68.2133 8.75C68.2133 6.21667 67.7466 4.95 66.8133 4.95ZM89.2719 35.85C89.7052 35.85 90.0385 36.05 90.2719 36.45C90.5385 36.85 90.6719 37.4 90.6719 38.1C90.6719 39.4333 90.3552 40.4667 89.7219 41.2C88.2885 42.9667 86.7219 44.4167 85.0219 45.55C83.3552 46.6833 81.4552 47.25 79.3219 47.25C76.3885 47.25 74.2052 45.9167 72.7719 43.25C71.3719 40.5833 70.6719 37.1333 70.6719 32.9C70.6719 28.8333 71.1885 24.2 72.2219 19C73.2885 13.8 74.8385 9.33333 76.8719 5.6C78.9385 1.86666 81.3885 -2.86102e-06 84.2219 -2.86102e-06C85.8219 -2.86102e-06 87.0719 0.749997 87.9719 2.25C88.9052 3.71667 89.3719 5.83333 89.3719 8.6C89.3719 12.5667 88.2719 17.1667 86.0719 22.4C83.8719 27.6333 80.8885 32.8167 77.1219 37.95C77.3552 39.3167 77.7385 40.3 78.2719 40.9C78.8052 41.4667 79.5052 41.75 80.3719 41.75C81.7385 41.75 82.9385 41.3667 83.9719 40.6C85.0052 39.8 86.3219 38.45 87.9219 36.55C88.3219 36.0833 88.7719 35.85 89.2719 35.85ZM83.1219 4.95C82.3552 4.95 81.4885 6.33333 80.5219 9.1C79.5552 11.8667 78.7052 15.3 77.9719 19.4C77.2385 23.5 76.8385 27.4333 76.7719 31.2C79.1385 27.3 81.0219 23.4 82.4219 19.5C83.8219 15.5667 84.5219 11.9833 84.5219 8.75C84.5219 6.21667 84.0552 4.95 83.1219 4.95ZM104.53 37.35C104.964 37.35 105.297 37.55 105.53 37.95C105.797 38.35 105.93 38.9 105.93 39.6C105.93 40.8 105.647 41.8333 105.08 42.7C104.147 44.1333 102.914 45.25 101.38 46.05C99.8805 46.85 98.0805 47.25 95.9805 47.25C92.7805 47.25 90.2971 46.3 88.5305 44.4C86.7638 42.4667 85.8805 39.8667 85.8805 36.6C85.8805 34.3 86.3638 32.1667 87.3305 30.2C88.2971 28.2 89.6305 26.6167 91.3305 25.45C93.0638 24.2833 95.0138 23.7 97.1805 23.7C99.1138 23.7 100.664 24.2833 101.83 25.45C102.997 26.5833 103.58 28.1333 103.58 30.1C103.58 32.4 102.747 34.3833 101.08 36.05C99.4471 37.6833 96.6471 38.9833 92.6805 39.95C93.4805 41.4833 94.8305 42.25 96.7305 42.25C98.0971 42.25 99.2138 41.9333 100.08 41.3C100.98 40.6667 102.014 39.6 103.18 38.1C103.58 37.6 104.03 37.35 104.53 37.35ZM96.3305 28.6C95.0971 28.6 94.0471 29.3167 93.1805 30.75C92.3471 32.1833 91.9305 33.9167 91.9305 35.95V36.05C93.8971 35.5833 95.4471 34.8833 96.5805 33.95C97.7138 33.0167 98.2805 31.9333 98.2805 30.7C98.2805 30.0667 98.0971 29.5667 97.7305 29.2C97.3971 28.8 96.9305 28.6 96.3305 28.6Z" fill="#9B5AFF"/>
</svg>
