<svg width="114" height="125" viewBox="0 0 114 125" fill="none" xmlns="http://www.w3.org/2000/svg">
<g filter="url(#filter0_d_227_228)">
<path d="M10 -1H104V101C104 106.523 99.5229 111 94 111H20C14.4772 111 10 106.523 10 101V-1Z" fill="#9B5AFF"/>
</g>
<path d="M49.636 83.335C47.0453 83.335 44.1197 83.1117 40.859 82.665C39.0723 82.4417 37.844 81.9727 37.174 81.258C36.504 80.5433 36.2137 79.382 36.303 77.774C36.6157 73.352 37.3527 67.9027 38.514 61.426C39.6753 54.9047 41.0823 48.629 42.735 42.599C43.0477 41.4823 43.673 40.7007 44.611 40.254C45.549 39.8073 46.7773 39.584 48.296 39.584C51.0207 39.584 52.383 40.3433 52.383 41.862C52.383 42.4873 52.249 43.202 51.981 44.006C50.8197 47.5793 49.6583 52.381 48.497 58.411C47.3357 64.3963 46.5093 70.1137 46.018 75.563C47.358 75.697 48.8767 75.764 50.574 75.764C58.3907 75.764 64.2197 73.3967 68.061 68.662C71.947 63.9273 73.89 57.607 73.89 49.701C73.89 44.3857 72.3713 40.2763 69.334 37.373C66.2967 34.4697 62.0087 33.018 56.47 33.018C52.8967 33.018 49.3457 33.5763 45.817 34.693C42.333 35.8097 39.184 37.2837 36.37 39.115C35.7893 39.517 35.164 39.718 34.494 39.718C33.7347 39.718 33.1317 39.4053 32.685 38.78C32.2383 38.11 32.015 37.306 32.015 36.368C32.015 35.296 32.1937 34.425 32.551 33.755C32.9083 33.0403 33.5113 32.3927 34.36 31.812C37.442 29.7127 41.06 28.127 45.214 27.055C49.368 25.9383 53.3657 25.38 57.207 25.38C62.6563 25.38 67.3687 26.3403 71.344 28.261C75.3193 30.137 78.379 32.9063 80.523 36.569C82.667 40.2317 83.739 44.6537 83.739 49.835C83.739 56.5797 82.399 62.4757 79.719 67.523C77.039 72.5257 73.1307 76.4117 67.994 79.181C62.8573 81.9503 56.738 83.335 49.636 83.335Z" fill="white"/>
<defs>
<filter id="filter0_d_227_228" x="0" y="-7" width="114" height="132" filterUnits="userSpaceOnUse" color-interpolation-filters="sRGB">
<feFlood flood-opacity="0" result="BackgroundImageFix"/>
<feColorMatrix in="SourceAlpha" type="matrix" values="0 0 0 0 0 0 0 0 0 0 0 0 0 0 0 0 0 0 127 0" result="hardAlpha"/>
<feOffset dy="4"/>
<feGaussianBlur stdDeviation="5"/>
<feComposite in2="hardAlpha" operator="out"/>
<feColorMatrix type="matrix" values="0 0 0 0 0.592157 0 0 0 0 0.278431 0 0 0 0 1 0 0 0 0.3 0"/>
<feBlend mode="normal" in2="BackgroundImageFix" result="effect1_dropShadow_227_228"/>
<feBlend mode="normal" in="SourceGraphic" in2="effect1_dropShadow_227_228" result="shape"/>
</filter>
</defs>
</svg>
